<svg width="72" height="72" viewBox="0 0 72 72" fill="none" xmlns="http://www.w3.org/2000/svg">
<rect width="72" height="72" rx="6" fill="#EDD8FF" fill-opacity="0.5"/>
<path d="M29.3333 41.3334C29.8638 41.3334 30.3725 41.1227 30.7475 40.7476C31.1226 40.3726 31.3333 39.8638 31.3333 39.3334C31.3398 39.2669 31.3398 39.1999 31.3333 39.1334L35.0533 35.4134H35.36H35.6667L37.8133 37.5601C37.8133 37.5601 37.8133 37.6267 37.8133 37.6667C37.8133 38.1972 38.024 38.7059 38.3991 39.081C38.7742 39.456 39.2829 39.6667 39.8133 39.6667C40.3438 39.6667 40.8525 39.456 41.2275 39.081C41.6026 38.7059 41.8133 38.1972 41.8133 37.6667V37.5601L46.6667 32.6667C47.0622 32.6667 47.4489 32.5495 47.7778 32.3297C48.1067 32.1099 48.363 31.7976 48.5144 31.4321C48.6658 31.0667 48.7054 30.6645 48.6282 30.2766C48.5511 29.8886 48.3606 29.5322 48.0809 29.2525C47.8012 28.9728 47.4448 28.7823 47.0568 28.7052C46.6689 28.628 46.2668 28.6676 45.9013 28.819C45.5358 28.9704 45.2235 29.2267 45.0037 29.5556C44.784 29.8845 44.6667 30.2712 44.6667 30.6667C44.6602 30.7333 44.6602 30.8002 44.6667 30.8667L39.8533 35.6801H39.64L37.3333 33.3334C37.3333 32.803 37.1226 32.2943 36.7475 31.9192C36.3725 31.5441 35.8638 31.3334 35.3333 31.3334C34.8029 31.3334 34.2942 31.5441 33.9191 31.9192C33.544 32.2943 33.3333 32.803 33.3333 33.3334L29.3333 37.3334C28.8029 37.3334 28.2942 37.5441 27.9191 37.9192C27.544 38.2943 27.3333 38.803 27.3333 39.3334C27.3333 39.8638 27.544 40.3726 27.9191 40.7476C28.2942 41.1227 28.8029 41.3334 29.3333 41.3334V41.3334ZM47.3333 46.6667H24.6667V24.0001C24.6667 23.6465 24.5262 23.3073 24.2761 23.0573C24.0261 22.8072 23.687 22.6667 23.3333 22.6667C22.9797 22.6667 22.6406 22.8072 22.3905 23.0573C22.1405 23.3073 22 23.6465 22 24.0001V48.0001C22 48.3537 22.1405 48.6928 22.3905 48.9429C22.6406 49.1929 22.9797 49.3334 23.3333 49.3334H47.3333C47.687 49.3334 48.0261 49.1929 48.2761 48.9429C48.5262 48.6928 48.6667 48.3537 48.6667 48.0001C48.6667 47.6465 48.5262 47.3073 48.2761 47.0573C48.0261 46.8072 47.687 46.6667 47.3333 46.6667Z" fill="#A53DFF"/>
</svg>
