<svg width="13" height="14" viewBox="0 0 13 14" fill="none" xmlns="http://www.w3.org/2000/svg">
<path d="M12.42 6.62019C12.3724 6.49743 12.301 6.38529 12.21 6.29019L7.21 1.29019C7.11676 1.19695 7.00607 1.12299 6.88425 1.07253C6.76243 1.02207 6.63186 0.996094 6.5 0.996094C6.2337 0.996094 5.9783 1.10188 5.79 1.29019C5.69676 1.38342 5.6228 1.49411 5.57234 1.61594C5.52188 1.73776 5.49591 1.86833 5.49591 2.00019C5.49591 2.26649 5.6017 2.52188 5.79 2.71019L9.09 6.00019H1.5C1.23478 6.00019 0.98043 6.10554 0.792893 6.29308C0.605357 6.48062 0.5 6.73497 0.5 7.00019C0.5 7.2654 0.605357 7.51976 0.792893 7.70729C0.98043 7.89483 1.23478 8.00019 1.5 8.00019H9.09L5.79 11.2902C5.69627 11.3831 5.62188 11.4937 5.57111 11.6156C5.52034 11.7375 5.4942 11.8682 5.4942 12.0002C5.4942 12.1322 5.52034 12.2629 5.57111 12.3848C5.62188 12.5066 5.69627 12.6172 5.79 12.7102C5.88296 12.8039 5.99356 12.8783 6.11542 12.9291C6.23728 12.9798 6.36799 13.006 6.5 13.006C6.63201 13.006 6.76272 12.9798 6.88458 12.9291C7.00644 12.8783 7.11704 12.8039 7.21 12.7102L12.21 7.71019C12.301 7.61508 12.3724 7.50294 12.42 7.38019C12.52 7.13672 12.52 6.86365 12.42 6.62019Z" fill="white"/>
</svg>
