<svg width="48" height="48" viewBox="0 0 48 48" fill="none" xmlns="http://www.w3.org/2000/svg">
<rect width="48" height="48" rx="4" fill="#EDD8FF" fill-opacity="0.5"/>
<path d="M30 16.4804C28.4087 14.8891 26.2504 13.9951 24 13.9951C21.7496 13.9951 19.5913 14.8891 18 16.4804C16.4087 18.0717 15.5147 20.23 15.5147 22.4804C15.5147 24.7308 16.4087 26.8891 18 28.4804L23.27 33.7604C23.363 33.8541 23.4736 33.9285 23.5954 33.9793C23.7173 34.0301 23.848 34.0562 23.98 34.0562C24.112 34.0562 24.2427 34.0301 24.3646 33.9793C24.4864 33.9285 24.597 33.8541 24.69 33.7604L30 28.4304C31.5847 26.8457 32.4749 24.6965 32.4749 22.4554C32.4749 20.2143 31.5847 18.0651 30 16.4804ZM28.57 27.0004L24 31.5904L19.43 27.0004C18.5272 26.0967 17.9125 24.9456 17.6637 23.6927C17.4149 22.4397 17.5432 21.1411 18.0323 19.9611C18.5214 18.781 19.3494 17.7724 20.4116 17.0629C21.4738 16.3533 22.7226 15.9746 24 15.9746C25.2774 15.9746 26.5262 16.3533 27.5884 17.0629C28.6506 17.7724 29.4786 18.781 29.9677 19.9611C30.4568 21.1411 30.5851 22.4397 30.3363 23.6927C30.0875 24.9456 29.4729 26.0967 28.57 27.0004ZM21 19.4104C20.1927 20.2202 19.7394 21.317 19.7394 22.4604C19.7394 23.6038 20.1927 24.7006 21 25.5104C21.5998 26.1112 22.3636 26.5215 23.1957 26.6898C24.0277 26.8581 24.891 26.777 25.6771 26.4566C26.4632 26.1361 27.1372 25.5907 27.6145 24.8886C28.0918 24.1866 28.3511 23.3593 28.36 22.5104C28.3645 21.9436 28.2553 21.3817 28.0389 20.8578C27.8225 20.3339 27.5032 19.8588 27.1 19.4604C26.7037 19.055 26.2311 18.7319 25.7094 18.5099C25.1878 18.2878 24.6273 18.1711 24.0604 18.1664C23.4935 18.1618 22.9312 18.2693 22.406 18.4828C21.8807 18.6963 21.4029 19.0115 21 19.4104ZM25.69 24.0904C25.311 24.4751 24.8102 24.7163 24.2731 24.7727C23.736 24.829 23.1961 24.697 22.7455 24.3993C22.295 24.1016 21.9618 23.6566 21.803 23.1405C21.6442 22.6243 21.6697 22.069 21.875 21.5696C22.0803 21.0701 22.4527 20.6574 22.9286 20.4021C23.4045 20.1469 23.9543 20.0648 24.4839 20.17C25.0136 20.2752 25.4903 20.5612 25.8325 20.9789C26.1747 21.3967 26.3612 21.9204 26.36 22.4604C26.3455 23.0777 26.0865 23.6639 25.64 24.0904H25.69Z" fill="#A53DFF"/>
</svg>
