<svg width="72" height="72" viewBox="0 0 72 72" fill="none" xmlns="http://www.w3.org/2000/svg">
<rect width="72" height="72" rx="6" fill="#EDD8FF" fill-opacity="0.5"/>
<path d="M48 38.6668H46.6666V29.3335C46.6666 28.2726 46.2452 27.2552 45.4951 26.5051C44.7449 25.7549 43.7275 25.3335 42.6666 25.3335H29.3333C28.2724 25.3335 27.255 25.7549 26.5049 26.5051C25.7547 27.2552 25.3333 28.2726 25.3333 29.3335V38.6668H24C23.6463 38.6668 23.3072 38.8073 23.0572 39.0574C22.8071 39.3074 22.6666 39.6465 22.6666 40.0002V42.6668C22.6666 43.7277 23.0881 44.7451 23.8382 45.4953C24.5883 46.2454 25.6058 46.6668 26.6666 46.6668H45.3333C46.3942 46.6668 47.4116 46.2454 48.1617 45.4953C48.9119 44.7451 49.3333 43.7277 49.3333 42.6668V40.0002C49.3333 39.6465 49.1928 39.3074 48.9428 39.0574C48.6927 38.8073 48.3536 38.6668 48 38.6668ZM28 29.3335C28 28.9799 28.1404 28.6407 28.3905 28.3907C28.6405 28.1406 28.9797 28.0002 29.3333 28.0002H42.6666C43.0202 28.0002 43.3594 28.1406 43.6094 28.3907C43.8595 28.6407 44 28.9799 44 29.3335V38.6668H28V29.3335ZM46.6666 42.6668C46.6666 43.0205 46.5262 43.3596 46.2761 43.6096C46.0261 43.8597 45.6869 44.0002 45.3333 44.0002H26.6666C26.313 44.0002 25.9739 43.8597 25.7238 43.6096C25.4738 43.3596 25.3333 43.0205 25.3333 42.6668V41.3335H46.6666V42.6668Z" fill="#A53DFF"/>
</svg>
