<svg width="72" height="72" viewBox="0 0 72 72" fill="none" xmlns="http://www.w3.org/2000/svg">
<rect width="72" height="72" rx="6" fill="#EDD8FF" fill-opacity="0.5"/>
<g clip-path="url(#clip0_10_89)">
<g filter="url(#filter0_d_10_89)">
<path d="M41.3333 38.6667H30.6667C30.313 38.6667 29.9739 38.8072 29.7239 39.0573C29.4738 39.3073 29.3333 39.6465 29.3333 40.0001C29.3333 40.3537 29.4738 40.6928 29.7239 40.9429C29.9739 41.1929 30.313 41.3334 30.6667 41.3334H41.3333C41.687 41.3334 42.0261 41.1929 42.2761 40.9429C42.5262 40.6928 42.6667 40.3537 42.6667 40.0001C42.6667 39.6465 42.5262 39.3073 42.2761 39.0573C42.0261 38.8072 41.687 38.6667 41.3333 38.6667ZM41.3333 33.3334H33.3333C32.9797 33.3334 32.6406 33.4739 32.3905 33.7239C32.1405 33.974 32 34.3131 32 34.6667C32 35.0204 32.1405 35.3595 32.3905 35.6096C32.6406 35.8596 32.9797 36.0001 33.3333 36.0001H41.3333C41.687 36.0001 42.0261 35.8596 42.2761 35.6096C42.5262 35.3595 42.6667 35.0204 42.6667 34.6667C42.6667 34.3131 42.5262 33.974 42.2761 33.7239C42.0261 33.4739 41.687 33.3334 41.3333 33.3334ZM46.6667 25.3334H42.6667V24.0001C42.6667 23.6465 42.5262 23.3073 42.2761 23.0573C42.0261 22.8072 41.687 22.6667 41.3333 22.6667C40.9797 22.6667 40.6406 22.8072 40.3905 23.0573C40.1405 23.3073 40 23.6465 40 24.0001V25.3334H37.3333V24.0001C37.3333 23.6465 37.1929 23.3073 36.9428 23.0573C36.6928 22.8072 36.3536 22.6667 36 22.6667C35.6464 22.6667 35.3072 22.8072 35.0572 23.0573C34.8071 23.3073 34.6667 23.6465 34.6667 24.0001V25.3334H32V24.0001C32 23.6465 31.8595 23.3073 31.6095 23.0573C31.3594 22.8072 31.0203 22.6667 30.6667 22.6667C30.313 22.6667 29.9739 22.8072 29.7239 23.0573C29.4738 23.3073 29.3333 23.6465 29.3333 24.0001V25.3334H25.3333C24.9797 25.3334 24.6406 25.4739 24.3905 25.7239C24.1405 25.974 24 26.3131 24 26.6667V45.3334C24 46.3943 24.4214 47.4117 25.1716 48.1618C25.9217 48.912 26.9391 49.3334 28 49.3334H44C45.0609 49.3334 46.0783 48.912 46.8284 48.1618C47.5786 47.4117 48 46.3943 48 45.3334V26.6667C48 26.3131 47.8595 25.974 47.6095 25.7239C47.3594 25.4739 47.0203 25.3334 46.6667 25.3334V25.3334ZM45.3333 45.3334C45.3333 45.687 45.1929 46.0262 44.9428 46.2762C44.6928 46.5263 44.3536 46.6667 44 46.6667H28C27.6464 46.6667 27.3072 46.5263 27.0572 46.2762C26.8071 46.0262 26.6667 45.687 26.6667 45.3334V28.0001H29.3333V29.3334C29.3333 29.687 29.4738 30.0262 29.7239 30.2762C29.9739 30.5263 30.313 30.6667 30.6667 30.6667C31.0203 30.6667 31.3594 30.5263 31.6095 30.2762C31.8595 30.0262 32 29.687 32 29.3334V28.0001H34.6667V29.3334C34.6667 29.687 34.8071 30.0262 35.0572 30.2762C35.3072 30.5263 35.6464 30.6667 36 30.6667C36.3536 30.6667 36.6928 30.5263 36.9428 30.2762C37.1929 30.0262 37.3333 29.687 37.3333 29.3334V28.0001H40V29.3334C40 29.687 40.1405 30.0262 40.3905 30.2762C40.6406 30.5263 40.9797 30.6667 41.3333 30.6667C41.687 30.6667 42.0261 30.5263 42.2761 30.2762C42.5262 30.0262 42.6667 29.687 42.6667 29.3334V28.0001H45.3333V45.3334Z" fill="#EDD8FF" fill-opacity="0.5"/>
<path d="M41.3333 38.6667H30.6667C30.313 38.6667 29.9739 38.8072 29.7239 39.0573C29.4738 39.3073 29.3333 39.6465 29.3333 40.0001C29.3333 40.3537 29.4738 40.6928 29.7239 40.9429C29.9739 41.1929 30.313 41.3334 30.6667 41.3334H41.3333C41.687 41.3334 42.0261 41.1929 42.2761 40.9429C42.5262 40.6928 42.6667 40.3537 42.6667 40.0001C42.6667 39.6465 42.5262 39.3073 42.2761 39.0573C42.0261 38.8072 41.687 38.6667 41.3333 38.6667ZM41.3333 33.3334H33.3333C32.9797 33.3334 32.6406 33.4739 32.3905 33.7239C32.1405 33.974 32 34.3131 32 34.6667C32 35.0204 32.1405 35.3595 32.3905 35.6096C32.6406 35.8596 32.9797 36.0001 33.3333 36.0001H41.3333C41.687 36.0001 42.0261 35.8596 42.2761 35.6096C42.5262 35.3595 42.6667 35.0204 42.6667 34.6667C42.6667 34.3131 42.5262 33.974 42.2761 33.7239C42.0261 33.4739 41.687 33.3334 41.3333 33.3334ZM46.6667 25.3334H42.6667V24.0001C42.6667 23.6465 42.5262 23.3073 42.2761 23.0573C42.0261 22.8072 41.687 22.6667 41.3333 22.6667C40.9797 22.6667 40.6406 22.8072 40.3905 23.0573C40.1405 23.3073 40 23.6465 40 24.0001V25.3334H37.3333V24.0001C37.3333 23.6465 37.1929 23.3073 36.9428 23.0573C36.6928 22.8072 36.3536 22.6667 36 22.6667C35.6464 22.6667 35.3072 22.8072 35.0572 23.0573C34.8071 23.3073 34.6667 23.6465 34.6667 24.0001V25.3334H32V24.0001C32 23.6465 31.8595 23.3073 31.6095 23.0573C31.3594 22.8072 31.0203 22.6667 30.6667 22.6667C30.313 22.6667 29.9739 22.8072 29.7239 23.0573C29.4738 23.3073 29.3333 23.6465 29.3333 24.0001V25.3334H25.3333C24.9797 25.3334 24.6406 25.4739 24.3905 25.7239C24.1405 25.974 24 26.3131 24 26.6667V45.3334C24 46.3943 24.4214 47.4117 25.1716 48.1618C25.9217 48.912 26.9391 49.3334 28 49.3334H44C45.0609 49.3334 46.0783 48.912 46.8284 48.1618C47.5786 47.4117 48 46.3943 48 45.3334V26.6667C48 26.3131 47.8595 25.974 47.6095 25.7239C47.3594 25.4739 47.0203 25.3334 46.6667 25.3334V25.3334ZM45.3333 45.3334C45.3333 45.687 45.1929 46.0262 44.9428 46.2762C44.6928 46.5263 44.3536 46.6667 44 46.6667H28C27.6464 46.6667 27.3072 46.5263 27.0572 46.2762C26.8071 46.0262 26.6667 45.687 26.6667 45.3334V28.0001H29.3333V29.3334C29.3333 29.687 29.4738 30.0262 29.7239 30.2762C29.9739 30.5263 30.313 30.6667 30.6667 30.6667C31.0203 30.6667 31.3594 30.5263 31.6095 30.2762C31.8595 30.0262 32 29.687 32 29.3334V28.0001H34.6667V29.3334C34.6667 29.687 34.8071 30.0262 35.0572 30.2762C35.3072 30.5263 35.6464 30.6667 36 30.6667C36.3536 30.6667 36.6928 30.5263 36.9428 30.2762C37.1929 30.0262 37.3333 29.687 37.3333 29.3334V28.0001H40V29.3334C40 29.687 40.1405 30.0262 40.3905 30.2762C40.6406 30.5263 40.9797 30.6667 41.3333 30.6667C41.687 30.6667 42.0261 30.5263 42.2761 30.2762C42.5262 30.0262 42.6667 29.687 42.6667 29.3334V28.0001H45.3333V45.3334Z" fill="#A53DFF"/>
</g>
</g>
<defs>
<filter id="filter0_d_10_89" x="20" y="22.6667" width="32" height="34.6667" filterUnits="userSpaceOnUse" color-interpolation-filters="sRGB">
<feFlood flood-opacity="0" result="BackgroundImageFix"/>
<feColorMatrix in="SourceAlpha" type="matrix" values="0 0 0 0 0 0 0 0 0 0 0 0 0 0 0 0 0 0 127 0" result="hardAlpha"/>
<feOffset dy="4"/>
<feGaussianBlur stdDeviation="2"/>
<feComposite in2="hardAlpha" operator="out"/>
<feColorMatrix type="matrix" values="0 0 0 0 0 0 0 0 0 0 0 0 0 0 0 0 0 0 0.25 0"/>
<feBlend mode="normal" in2="BackgroundImageFix" result="effect1_dropShadow_10_89"/>
<feBlend mode="normal" in="SourceGraphic" in2="effect1_dropShadow_10_89" result="shape"/>
</filter>
<clipPath id="clip0_10_89">
<rect width="32" height="32" fill="white" transform="translate(20 20)"/>
</clipPath>
</defs>
</svg>
